<svg xmlns="http://www.w3.org/2000/svg" xmlns:xlink="http://www.w3.org/1999/xlink" version="1.1" width="256" height="256" viewBox="0 0 256 256" xml:space="preserve">

<defs>
</defs>
<g style="stroke: none; stroke-width: 0; stroke-dasharray: none; stroke-linecap: butt; stroke-linejoin: miter; stroke-miterlimit: 10; fill: none; fill-rule: nonzero; opacity: 1;" transform="translate(1.4065934065934016 1.4065934065934016) scale(2.81 2.81)" >
	<path d="M 84.259 16.068 H 5.741 C 2.57 16.068 0 18.638 0 21.809 v 6.131 v 2 V 60.06 v 2 v 6.131 c 0 3.171 2.57 5.741 5.741 5.741 h 78.518 c 3.171 0 5.741 -2.57 5.741 -5.741 V 62.06 v -2 V 29.94 v -2 v -6.131 C 90 18.638 87.43 16.068 84.259 16.068 z" style="stroke: none; stroke-width: 1; stroke-dasharray: none; stroke-linecap: butt; stroke-linejoin: miter; stroke-miterlimit: 10; fill: rgb(49,60,70); fill-rule: nonzero; opacity: 1;" transform=" matrix(1 0 0 1 0 0) " stroke-linecap="round" />
	<path d="M 4 68.191 V 62.06 v -2 V 29.94 v -2 v -6.131 c 0 -3.171 2.57 -5.741 5.741 -5.741 h -4 C 2.57 16.068 0 18.638 0 21.809 v 6.131 V 62.06 v 6.131 c 0 3.171 2.57 5.741 5.741 5.741 h 4 C 6.57 73.932 4 71.362 4 68.191 z" style="stroke: none; stroke-width: 1; stroke-dasharray: none; stroke-linecap: butt; stroke-linejoin: miter; stroke-miterlimit: 10; fill: rgb(40,50,56); fill-rule: nonzero; opacity: 1;" transform=" matrix(1 0 0 1 0 0) " stroke-linecap="round" />
	<path d="M 11.12 37.847 h 3.997 c 1.072 -0.014 2.12 0.32 2.985 0.954 c 0.655 0.523 1.083 1.278 1.197 2.108 c 0.17 1.062 -0.078 2.149 -0.692 3.033 c -0.584 0.758 -1.413 1.29 -2.346 1.502 c -1.054 0.281 -2.151 0.181 -3.229 0.2 v 3.677 h -1.908 V 37.847 M 13.033 39.559 v 4.359 c 0.63 0 1.254 0 1.884 0 c 0.794 0.01 1.553 -0.326 2.079 -0.92 c 0.392 -0.539 0.52 -1.226 0.348 -1.869 c -0.098 -0.441 -0.354 -0.831 -0.72 -1.097 c -0.496 -0.326 -1.08 -0.492 -1.674 -0.477 h -1.908 M 22.051 41.547 c 0.853 -0.412 1.825 -0.509 2.742 -0.272 c 0.64 0.165 1.207 0.537 1.612 1.059 c 0 -0.343 0 -0.687 0 -1.035 h 1.788 c 0 2.675 0 5.346 0 8.022 h -1.774 c 0 -0.382 0 -0.763 0 -1.149 c -0.586 0.752 -1.466 1.217 -2.418 1.278 c -0.785 0.108 -1.583 -0.027 -2.289 -0.386 c -0.821 -0.449 -1.446 -1.189 -1.75 -2.075 c -0.346 -0.98 -0.346 -2.049 0 -3.028 C 20.328 42.921 21.074 42.058 22.051 41.547 M 23.482 42.84 c -1.018 0.262 -1.773 1.118 -1.908 2.16 c -0.117 0.906 0.244 1.809 0.954 2.385 c 1.029 0.693 2.409 0.533 3.253 -0.377 c 0.952 -1.102 0.85 -2.762 -0.229 -3.739 c -0.571 -0.45 -1.315 -0.615 -2.022 -0.448 M 41.337 41.185 c 0.902 -0.075 1.804 0.135 2.58 0.601 c 0.804 0.493 1.407 1.255 1.703 2.151 c 0.376 1.119 0.283 2.342 -0.258 3.391 c -0.43 0.812 -1.122 1.455 -1.965 1.822 c -2.077 0.974 -4.551 0.08 -5.525 -1.997 c -0.657 -1.4 -0.481 -3.049 0.455 -4.279 C 39.038 41.9 40.136 41.283 41.337 41.185 M 41.127 42.95 c -0.554 0.134 -1.035 0.475 -1.345 0.954 c -0.465 0.708 -0.555 1.598 -0.243 2.385 c 0.171 0.44 0.472 0.818 0.863 1.083 c 0.664 0.433 1.501 0.502 2.227 0.186 c 0.522 -0.234 0.94 -0.651 1.173 -1.173 c 0.315 -0.696 0.315 -1.493 0 -2.189 C 43.306 43.211 42.2 42.697 41.127 42.95 M 48.906 42.33 c 0.669 -0.798 1.674 -1.234 2.714 -1.178 c 0.823 -0.021 1.617 0.304 2.189 0.897 c 0.59 0.733 0.894 1.654 0.858 2.594 c 0 1.56 0 3.119 0 4.679 h -1.85 v -4.445 c 0.017 -0.505 -0.118 -1.003 -0.386 -1.431 c -0.208 -0.295 -0.517 -0.506 -0.868 -0.591 c -0.624 -0.149 -1.283 -0.018 -1.803 0.358 c -0.386 0.289 -0.659 0.704 -0.773 1.173 c -0.069 0.355 -0.093 0.717 -0.072 1.078 v 3.877 h -1.827 v -8.041 h 1.827 v 1.03 M 59.007 41.266 c 1.136 -0.282 2.338 -0.071 3.31 0.582 c 0.743 0.525 1.262 1.31 1.455 2.199 c 0.118 0.579 0.135 1.174 0.052 1.76 h -6.095 c 0.08 0.708 0.472 1.343 1.068 1.731 c 1.135 0.631 2.561 0.325 3.338 -0.715 l 1.431 0.787 c -0.41 0.703 -1.047 1.245 -1.807 1.536 c -0.877 0.347 -1.836 0.435 -2.761 0.253 c -0.847 -0.163 -1.614 -0.609 -2.175 -1.264 c -0.591 -0.726 -0.926 -1.626 -0.954 -2.561 c -0.063 -0.892 0.161 -1.781 0.639 -2.537 c 0.566 -0.885 1.453 -1.516 2.475 -1.76 M 58.826 42.997 c -0.521 0.313 -0.883 0.834 -0.997 1.431 h 4.159 c -0.054 -0.497 -0.307 -0.951 -0.701 -1.259 c -0.721 -0.523 -1.679 -0.584 -2.461 -0.157 M 66.657 41.958 c 0.788 -0.564 1.747 -0.839 2.714 -0.777 c 1.011 0.045 1.964 0.483 2.656 1.221 c 0.601 0.671 0.94 1.536 0.954 2.437 c 0.012 0.328 -0.002 0.657 -0.043 0.982 h -6.085 c 0.075 0.694 0.454 1.32 1.035 1.707 c 1.138 0.666 2.596 0.368 3.381 -0.692 l 1.431 0.787 c -0.524 0.878 -1.387 1.502 -2.385 1.726 c -1.072 0.288 -2.211 0.185 -3.214 -0.291 c -0.756 -0.387 -1.357 -1.02 -1.707 -1.793 c -0.367 -0.836 -0.487 -1.759 -0.348 -2.661 c 0.167 -1.062 0.748 -2.014 1.617 -2.647 M 67.911 43.035 c -0.494 0.315 -0.838 0.818 -0.954 1.393 h 4.159 c -0.052 -0.536 -0.334 -1.023 -0.773 -1.335 c -0.731 -0.483 -1.671 -0.514 -2.432 -0.081 M 77.449 41.333 c 0.469 -0.125 0.962 -0.125 1.431 0 c 0 0.563 0 1.13 0 1.698 c -0.617 -0.163 -1.272 -0.104 -1.85 0.167 c -0.425 0.23 -0.738 0.622 -0.868 1.087 c -0.098 0.417 -0.131 0.846 -0.1 1.273 v 3.763 h -1.812 c 0 -2.671 0 -5.346 0 -8.022 c 0.606 0 1.207 0 1.812 0 v 1.126 c 0.296 -0.534 0.795 -0.928 1.383 -1.092 M 29.276 41.304 h 2.075 l 1.974 5.723 l 2.213 -5.723 h 1.97 c -1.501 3.609 -3.008 7.225 -4.521 10.85 h -1.97 c 0.41 -0.954 0.816 -1.874 1.23 -2.814 c -0.987 -2.675 -1.984 -5.346 -2.971 -8.022 L 29.276 41.304 z" style="stroke: none; stroke-width: 1; stroke-dasharray: none; stroke-linecap: butt; stroke-linejoin: miter; stroke-miterlimit: 10; fill: rgb(249,249,249); fill-rule: nonzero; opacity: 1;" transform=" matrix(1 0 0 1 0 0) " stroke-linecap="round" />
</g>
</svg>