<svg xmlns="http://www.w3.org/2000/svg" xmlns:xlink="http://www.w3.org/1999/xlink" version="1.1" width="256" height="256" viewBox="0 0 256 256" xml:space="preserve">

<defs>
</defs>
<g style="stroke: none; stroke-width: 0; stroke-dasharray: none; stroke-linecap: butt; stroke-linejoin: miter; stroke-miterlimit: 10; fill: none; fill-rule: nonzero; opacity: 1;" transform="translate(1.4065934065934016 1.4065934065934016) scale(2.81 2.81)" >
	<path d="M 34.583 38.931 c -0.27 0 -0.462 0.264 -0.38 0.521 l 3.737 11.595 l -3.379 5.464 c -0.164 0.265 0.027 0.608 0.338 0.608 h 3.993 c 0.232 0 0.448 -0.122 0.568 -0.32 l 10.435 -17.263 c 0.16 -0.265 -0.031 -0.604 -0.341 -0.604 h -3.993 c -0.235 0 -0.452 0.124 -0.571 0.326 l -4.108 6.935 l -2.085 -6.884 c -0.068 -0.224 -0.275 -0.377 -0.508 -0.377 L 34.583 38.931 z" style="stroke: none; stroke-width: 1; stroke-dasharray: none; stroke-linecap: butt; stroke-linejoin: miter; stroke-miterlimit: 10; fill: rgb(0,48,135); fill-rule: nonzero; opacity: 1;" transform=" matrix(1 0 0 1 0 0) " stroke-linecap="round" />
	<path d="M 85.919 32.881 c -0.261 0 -0.484 0.19 -0.525 0.448 l -3.028 19.198 c -0.042 0.268 0.14 0.52 0.409 0.562 c 0.025 0.004 0.051 0.006 0.077 0.006 h 3.59 c 0.261 0 0.484 -0.19 0.525 -0.448 l 3.027 -19.198 c 0.042 -0.268 -0.141 -0.52 -0.409 -0.562 c -0.025 -0.004 -0.05 -0.006 -0.075 -0.006 L 85.919 32.881 z" style="stroke: none; stroke-width: 1; stroke-dasharray: none; stroke-linecap: butt; stroke-linejoin: miter; stroke-miterlimit: 10; fill: rgb(0,112,224); fill-rule: nonzero; opacity: 1;" transform=" matrix(1 0 0 1 0 0) " stroke-linecap="round" />
	<path d="M 59.422 32.881 h -6.784 c -0.262 0 -0.484 0.19 -0.525 0.448 l -3.027 19.198 c -0.042 0.268 0.141 0.52 0.409 0.562 c 0.025 0.004 0.051 0.006 0.076 0.006 h 3.59 c 0.261 0 0.484 -0.19 0.525 -0.448 l 0.889 -5.638 c 0.041 -0.258 0.263 -0.448 0.525 -0.448 h 3.264 c 3.814 0 7.051 -2.783 7.642 -6.553 C 66.602 36.205 63.632 32.889 59.422 32.881 z M 61.368 39.838 c -0.221 1.406 -1.308 2.442 -3.389 2.442 h -2.658 l 0.806 -5.113 h 2.612 C 60.889 37.167 61.589 38.435 61.368 39.838 z" style="stroke: none; stroke-width: 1; stroke-dasharray: none; stroke-linecap: butt; stroke-linejoin: miter; stroke-miterlimit: 10; fill: rgb(0,112,224); fill-rule: nonzero; opacity: 1;" transform=" matrix(1 0 0 1 0 0) " stroke-linecap="round" />
	<path d="M 10.342 32.881 H 3.558 c -0.262 0 -0.484 0.19 -0.525 0.448 L 0.006 52.528 c -0.042 0.268 0.141 0.52 0.409 0.562 c 0.025 0.004 0.051 0.006 0.076 0.006 h 3.59 c 0.261 0 0.484 -0.19 0.525 -0.448 l 0.889 -5.638 c 0.041 -0.258 0.263 -0.448 0.525 -0.448 h 3.264 c 3.814 0 7.051 -2.783 7.643 -6.553 C 17.523 36.205 14.552 32.889 10.342 32.881 z M 12.288 39.838 C 12.067 41.244 10.98 42.28 8.9 42.28 H 6.242 l 0.806 -5.113 h 2.612 C 11.81 37.167 12.51 38.435 12.288 39.838 z" style="stroke: none; stroke-width: 1; stroke-dasharray: none; stroke-linecap: butt; stroke-linejoin: miter; stroke-miterlimit: 10; fill: rgb(0,48,135); fill-rule: nonzero; opacity: 1;" transform=" matrix(1 0 0 1 0 0) " stroke-linecap="round" />
	<path d="M 81.638 38.938 c -0.025 -0.004 -0.051 -0.006 -0.077 -0.006 h -3.408 c -0.261 0 -0.484 0.19 -0.524 0.448 l -0.112 0.708 c 0 0 -1.488 -1.626 -4.208 -1.616 h 0 c -0.907 0.003 -1.95 0.189 -3.121 0.677 c -2.686 1.12 -3.976 3.434 -4.524 5.121 c 0 0 -1.743 5.147 2.197 7.975 c 0 0 3.653 2.722 7.766 -0.168 l -0.071 0.451 c -0.042 0.268 0.141 0.52 0.409 0.562 c 0.025 0.004 0.051 0.006 0.076 0.006 h 3.408 c 0.261 0 0.484 -0.19 0.525 -0.448 L 82.047 39.5 C 82.089 39.232 81.906 38.98 81.638 38.938 z M 76.553 46.198 c -0.298 1.886 -1.844 3.274 -3.827 3.274 c -0.391 0 -0.749 -0.054 -1.071 -0.157 c -1.47 -0.472 -2.309 -1.885 -2.068 -3.416 c 0.298 -1.886 1.849 -3.275 3.832 -3.275 v 0 c 0.391 0 0.749 0.054 1.071 0.157 C 75.96 43.254 76.794 44.666 76.553 46.198 z" style="stroke: none; stroke-width: 1; stroke-dasharray: none; stroke-linecap: butt; stroke-linejoin: miter; stroke-miterlimit: 10; fill: rgb(0,112,224); fill-rule: nonzero; opacity: 1;" transform=" matrix(1 0 0 1 0 0) " stroke-linecap="round" />
	<polygon points="24.23,38.47 24.23,38.47 24.23,38.47 " style="stroke: none; stroke-width: 1; stroke-dasharray: none; stroke-linecap: butt; stroke-linejoin: miter; stroke-miterlimit: 10; fill: rgb(0,48,135); fill-rule: nonzero; opacity: 1;" transform="  matrix(1 0 0 1 0 0) "/>
	<path d="M 32.557 38.938 c -0.025 -0.004 -0.051 -0.006 -0.076 -0.006 h -3.408 c -0.262 0 -0.484 0.19 -0.525 0.448 l -0.111 0.708 c 0 0 -1.489 -1.626 -4.208 -1.616 c -0.906 0.003 -1.95 0.189 -3.121 0.677 c -2.686 1.12 -3.976 3.434 -4.524 5.121 c 0 0 -1.744 5.147 2.196 7.975 c 0 0 3.654 2.722 7.766 -0.168 l -0.071 0.451 c -0.042 0.268 0.141 0.52 0.409 0.562 c 0.025 0.004 0.05 0.006 0.075 0.006 h 3.408 c 0.262 0 0.484 -0.19 0.525 -0.448 L 32.966 39.5 C 33.008 39.232 32.825 38.98 32.557 38.938 z M 27.474 46.198 c -0.297 1.886 -1.844 3.274 -3.827 3.274 c -0.391 0 -0.749 -0.054 -1.071 -0.157 c -1.47 -0.472 -2.309 -1.885 -2.068 -3.416 c 0.298 -1.886 1.849 -3.275 3.832 -3.275 v 0 c 0.391 0 0.749 0.054 1.071 0.157 C 26.881 43.254 27.715 44.666 27.474 46.198 z" style="stroke: none; stroke-width: 1; stroke-dasharray: none; stroke-linecap: butt; stroke-linejoin: miter; stroke-miterlimit: 10; fill: rgb(0,48,135); fill-rule: nonzero; opacity: 1;" transform=" matrix(1 0 0 1 0 0) " stroke-linecap="round" />
</g>
</svg>