<svg xmlns="http://www.w3.org/2000/svg" xmlns:xlink="http://www.w3.org/1999/xlink" version="1.1" width="256" height="256" viewBox="0 0 256 256" xml:space="preserve">

<defs>
</defs>
<g style="stroke: none; stroke-width: 0; stroke-dasharray: none; stroke-linecap: butt; stroke-linejoin: miter; stroke-miterlimit: 10; fill: none; fill-rule: nonzero; opacity: 1;" transform="translate(1.4065934065934016 1.4065934065934016) scale(2.81 2.81)" >
	<path d="M 48.118 42.947 l -4.258 -1.559 c -0.062 -0.022 -0.124 -0.043 -0.187 -0.062 c -1.737 -0.51 -3.096 -1.769 -3.728 -3.453 c -1.103 -2.94 0.393 -6.229 3.333 -7.332 c 1.425 -0.534 2.973 -0.48 4.356 0.148 c 1.385 0.629 2.441 1.76 2.975 3.185 c 0.583 1.553 2.315 2.336 3.862 1.756 c 1.552 -0.582 2.338 -2.311 1.757 -3.862 c -1.097 -2.925 -3.267 -5.248 -6.111 -6.541 C 49.428 24.914 48.72 24.674 48 24.5 v -2.17 c 0 -1.657 -1.343 -3 -3 -3 c -1.657 0 -3 1.343 -3 3 v 2.328 c -0.277 0.082 -0.555 0.163 -0.828 0.266 c -2.925 1.097 -5.248 3.267 -6.541 6.111 c -1.292 2.844 -1.4 6.021 -0.304 8.945 c 1.288 3.435 4.038 6.007 7.555 7.073 l 4.258 1.56 c 0.062 0.022 0.123 0.043 0.187 0.062 c 1.737 0.51 3.096 1.769 3.728 3.453 c 0.534 1.424 0.481 2.971 -0.148 4.355 c -0.629 1.385 -1.761 2.441 -3.185 2.977 c -0.56 0.21 -1.132 0.324 -1.699 0.354 c -0.008 0 -0.015 -0.002 -0.023 -0.002 c -0.009 0 -0.017 0.003 -0.026 0.003 c -2.398 0.104 -4.697 -1.323 -5.584 -3.688 c -0.582 -1.552 -2.313 -2.341 -3.862 -1.755 c -1.551 0.581 -2.337 2.311 -1.756 3.862 c 1.414 3.77 4.58 6.381 8.229 7.26 v 2.178 c 0 1.657 1.343 3 3 3 c 1.657 0 3 -1.343 3 -3 v -2.325 c 0.277 -0.081 0.554 -0.166 0.828 -0.269 c 2.925 -1.097 5.248 -3.267 6.541 -6.11 c 1.292 -2.844 1.4 -6.021 0.304 -8.945 C 54.385 46.585 51.635 44.013 48.118 42.947 z" style="stroke: none; stroke-width: 1; stroke-dasharray: none; stroke-linecap: butt; stroke-linejoin: miter; stroke-miterlimit: 10; fill: rgb(41,145,90); fill-rule: nonzero; opacity: 1;" transform=" matrix(1 0 0 1 0 0) " stroke-linecap="round" />
	<path d="M 66.727 7.548 H 23.366 l 2.427 -2.427 c 1.171 -1.171 1.171 -3.071 0 -4.243 c -1.171 -1.171 -3.071 -1.171 -4.243 0 l -7.548 7.548 c -0.006 0.006 -0.009 0.013 -0.015 0.018 c -0.132 0.135 -0.253 0.281 -0.358 0.438 c -0.052 0.077 -0.087 0.161 -0.131 0.241 c -0.049 0.091 -0.105 0.178 -0.145 0.275 c -0.042 0.103 -0.067 0.21 -0.098 0.316 c -0.024 0.082 -0.056 0.16 -0.072 0.244 c -0.077 0.388 -0.077 0.788 0 1.176 c 0.018 0.088 0.051 0.17 0.076 0.256 c 0.03 0.102 0.053 0.205 0.094 0.304 c 0.042 0.102 0.1 0.195 0.153 0.291 c 0.041 0.075 0.074 0.153 0.122 0.225 c 0.11 0.165 0.236 0.32 0.376 0.46 l 7.546 7.546 c 0.585 0.586 1.354 0.879 2.121 0.879 s 1.536 -0.293 2.121 -0.879 c 1.172 -1.171 1.172 -3.071 0 -4.242 l -2.427 -2.427 h 43.361 c 7.844 0 14.226 6.381 14.226 14.226 S 74.57 42 66.727 42 c -1.657 0 -3 1.343 -3 3 c 0 1.657 1.343 3 3 3 c 11.152 0 20.226 -9.073 20.226 -20.226 C 86.952 16.622 77.879 7.548 66.727 7.548 z" style="stroke: none; stroke-width: 1; stroke-dasharray: none; stroke-linecap: butt; stroke-linejoin: miter; stroke-miterlimit: 10; fill: rgb(61,220,128); fill-rule: nonzero; opacity: 1;" transform=" matrix(1 0 0 1 0 0) " stroke-linecap="round" />
	<path d="M 76.944 77.331 l -7.548 -7.549 c -1.172 -1.172 -3.07 -1.172 -4.242 0 c -1.172 1.171 -1.172 3.07 0 4.242 l 2.427 2.428 H 23.273 c -7.844 0 -14.226 -6.382 -14.226 -14.227 C 9.048 54.382 15.429 48 23.273 48 c 1.657 0 3 -1.343 3 -3 c 0 -1.657 -1.343 -3 -3 -3 C 12.121 42 3.048 51.073 3.048 62.226 c 0 11.153 9.073 20.227 20.226 20.227 h 44.308 l -2.427 2.427 c -1.172 1.171 -1.172 3.071 0 4.242 C 65.74 89.707 66.508 90 67.275 90 s 1.535 -0.293 2.121 -0.879 l 7.548 -7.548 C 78.116 80.402 78.116 78.503 76.944 77.331 z" style="stroke: none; stroke-width: 1; stroke-dasharray: none; stroke-linecap: butt; stroke-linejoin: miter; stroke-miterlimit: 10; fill: rgb(61,220,128); fill-rule: nonzero; opacity: 1;" transform=" matrix(1 0 0 1 0 0) " stroke-linecap="round" />
</g>
</svg>